<svg width="21" height="21" viewBox="0 0 21 21" fill="none" xmlns="http://www.w3.org/2000/svg">
<path d="M0 10.5C0 5.55025 -1.2517e-07 3.07538 1.53769 1.53769C3.07538 -1.2517e-07 5.55025 0 10.5 0C15.4497 0 17.9247 -1.2517e-07 19.4623 1.53769C21 3.07538 21 5.55025 21 10.5C21 15.4497 21 17.9247 19.4623 19.4623C17.9247 21 15.4497 21 10.5 21C5.55025 21 3.07538 21 1.53769 19.4623C-1.2517e-07 17.9247 0 15.4497 0 10.5Z" fill="#B0ED8F"/>
<path fill-rule="evenodd" clip-rule="evenodd" d="M10.2044 5.47624C10.3294 5.05966 10.093 4.62065 9.67637 4.49567C9.25984 4.3707 8.82083 4.60709 8.69578 5.02367L7.91918 7.61246H5.2501C4.81518 7.61246 4.4626 7.96504 4.4626 8.39996C4.4626 8.83492 4.81518 9.18751 5.2501 9.18751H7.44668L6.65918 11.8125H4.2001C3.76518 11.8125 3.4126 12.165 3.4126 12.6C3.4126 13.0349 3.76518 13.3875 4.2001 13.3875H6.18668L5.54581 15.5236C5.42084 15.9403 5.65722 16.3793 6.07381 16.5042C6.49039 16.6292 6.92942 16.3928 7.05439 15.9763L7.83102 13.3875H11.4367L10.7958 15.5236C10.6708 15.9403 10.9072 16.3793 11.3238 16.5042C11.7404 16.6292 12.1794 16.3928 12.3044 15.9763L13.081 13.3875H15.7501C16.185 13.3875 16.5376 13.0349 16.5376 12.6C16.5376 12.165 16.185 11.8125 15.7501 11.8125H13.5535L14.341 9.18751H16.8001C17.235 9.18751 17.5876 8.83492 17.5876 8.39996C17.5876 7.96504 17.235 7.61246 16.8001 7.61246H14.8135L15.4544 5.47624C15.5794 5.05966 15.343 4.62065 14.9264 4.49567C14.5098 4.3707 14.0708 4.60709 13.9458 5.02367L13.1692 7.61246H9.5635L10.2044 5.47624ZM12.6967 9.18751L11.9092 11.8125H8.30352L9.091 9.18751H12.6967Z" fill="#0E2A4F"/>
</svg>
